<svg data-v-fde0c5aa="" xmlns="http://www.w3.org/2000/svg" viewBox="0 0 300 300" class="font"><!----><defs data-v-fde0c5aa=""><!----></defs><rect data-v-fde0c5aa="" fill="#D2EAF5" x="0" y="0" width="300px" height="300px" class="logo-background-square"></rect><defs data-v-fde0c5aa=""><linearGradient data-v-fde0c5aa="" gradientTransform="rotate(25)" id="b6ed5c3b-7b27-4c6a-bdd8-471556798b8d" x1="0%" y1="0%" x2="100%" y2="0%"><stop data-v-fde0c5aa="" offset="0%" stop-color="#000A68" stop-opacity="1"></stop><stop data-v-fde0c5aa="" offset="100%" stop-color="#00C4EE" stop-opacity="1"></stop></linearGradient></defs><g data-v-fde0c5aa="" id="71580167-ca43-418f-b6c2-b71baebda23f" fill="url(#b6ed5c3b-7b27-4c6a-bdd8-471556798b8d)" transform="matrix(16.7046316420302,0,0,16.7046316420302,40,56.45406141068779)"><path d="M3.53 1.68L0.98 1.68L0.98 4.62L3.02 4.62L3.02 5.60L0.98 5.60L0.98 9.52L3.53 9.52L3.53 10.50L0 10.50L0 4.62L0.98 4.62L0 1.68L0 0.70L3.53 0.70L3.53 1.68ZM4.44 10.50L4.44 4.62L5.42 4.62L5.42 10.50L4.44 10.50ZM4.44 0.70L7.27 0.70L7.27 0.70Q7.71 0.70 8.04 1.03L8.04 1.03L8.04 1.03Q8.37 1.36 8.37 1.82L8.37 1.82L8.37 4.48L8.37 4.48Q8.37 4.94 8.04 5.27L8.04 5.27L8.04 5.27Q7.71 5.60 7.27 5.60L7.27 5.60L6.92 5.60L8.37 10.50L7.32 10.50L5.63 4.62L7.27 4.62L7.27 4.62Q7.39 4.62 7.39 4.48L7.39 4.48L7.39 1.82L7.39 1.82Q7.39 1.68 7.27 1.68L7.27 1.68L5.42 1.68L5.42 4.62L4.44 1.68L4.44 0.70ZM12.19 0.71L13.17 0.71L13.17 9.39L13.17 9.39Q13.17 9.81 12.91 10.12L12.91 10.12L12.91 10.12Q12.66 10.43 12.25 10.50L12.25 10.50L10.22 10.50L10.22 10.50Q9.81 10.43 9.55 10.12L9.55 10.12L9.55 10.12Q9.28 9.81 9.28 9.39L9.28 9.39L9.28 0.71L10.26 0.71L10.26 9.39L10.26 9.39Q10.26 9.53 10.40 9.53L10.40 9.53L12.07 9.53L12.07 9.53Q12.19 9.53 12.19 9.39L12.19 9.39L12.19 0.71Z"></path></g><!----><!----></svg>